<svg width="850" height="659" viewBox="0 0 850 659" fill="none" xmlns="http://www.w3.org/2000/svg">
<rect width="850" height="659" fill="white"/>
<path d="M201.903 288H99.2129C81.6934 288 81.6933 314 99.2129 314H201.903C218.857 314 218.857 288 201.903 288Z" fill="black"/>
<path d="M166.58 333H97.8704C80.7587 333 80.7587 359 97.8704 359H166.58C183.637 359 183.637 333 166.58 333Z" fill="black"/>
<path d="M138.855 377H96.4811C79.8396 377 79.8396 404 96.4811 404H138.855C155.559 404 155.559 377 138.855 377Z" fill="black"/>
<path d="M86.0732 259.472V204H236.649C271.397 204 293.405 225.853 293.405 259.472V413H248.232V266.196C248.232 256.11 240.124 249.386 229.699 249.386H128.929V259.472C128.929 265.075 125.455 268.437 119.663 268.437H94.1812C88.3898 268.437 86.0732 265.075 86.0732 259.472Z" fill="black"/>
<path d="M324.334 402H313.788L337.584 355.455H350.265L358.584 402H348.038L342.379 366.091H342.015L324.334 402ZM326.743 383.705H351.652L350.334 391.386H325.425L326.743 383.705ZM375.925 415.818C372.773 415.818 370.144 415.386 368.038 414.523C365.947 413.674 364.356 412.515 363.265 411.045C362.19 409.576 361.599 407.924 361.493 406.091L370.675 404.886C370.841 405.598 371.159 406.258 371.629 406.864C372.114 407.47 372.803 407.955 373.697 408.318C374.606 408.682 375.781 408.864 377.22 408.864C379.326 408.864 381.159 408.348 382.72 407.318C384.281 406.303 385.243 404.598 385.606 402.205L386.652 395.818H386.243C385.667 396.788 384.879 397.705 383.879 398.568C382.894 399.432 381.69 400.136 380.265 400.682C378.856 401.227 377.228 401.5 375.379 401.5C372.743 401.5 370.455 400.894 368.515 399.682C366.591 398.455 365.197 396.583 364.334 394.068C363.485 391.538 363.379 388.341 364.015 384.477C364.682 380.523 365.879 377.22 367.606 374.568C369.334 371.917 371.379 369.932 373.743 368.614C376.106 367.295 378.569 366.636 381.129 366.636C383.084 366.636 384.659 366.97 385.856 367.636C387.068 368.288 388 369.106 388.652 370.091C389.303 371.061 389.765 372.015 390.038 372.955H390.425L391.379 367.091H400.993L395.129 402.341C394.659 405.326 393.531 407.811 391.743 409.795C389.97 411.795 387.72 413.295 384.993 414.295C382.265 415.311 379.243 415.818 375.925 415.818ZM379.561 394.227C381.106 394.227 382.493 393.841 383.72 393.068C384.962 392.28 386 391.159 386.834 389.705C387.667 388.235 388.25 386.477 388.584 384.432C388.917 382.386 388.909 380.614 388.561 379.114C388.228 377.598 387.576 376.424 386.606 375.591C385.652 374.758 384.394 374.341 382.834 374.341C381.228 374.341 379.818 374.773 378.606 375.636C377.394 376.485 376.387 377.667 375.584 379.182C374.796 380.697 374.243 382.447 373.925 384.432C373.591 386.447 373.576 388.189 373.879 389.659C374.197 391.114 374.826 392.242 375.765 393.045C376.705 393.833 377.97 394.227 379.561 394.227ZM418.697 402.682C415.122 402.682 412.159 401.955 409.811 400.5C407.462 399.03 405.811 396.955 404.856 394.273C403.917 391.576 403.758 388.386 404.379 384.705C404.985 381.114 406.205 377.962 408.038 375.25C409.887 372.538 412.205 370.424 414.993 368.909C417.781 367.394 420.887 366.636 424.311 366.636C426.614 366.636 428.697 367.008 430.561 367.75C432.44 368.477 434 369.583 435.243 371.068C436.485 372.538 437.334 374.379 437.788 376.591C438.258 378.803 438.25 381.394 437.765 384.364L437.334 387.023H407.879L408.811 381.023H429.175C429.402 379.629 429.311 378.394 428.902 377.318C428.493 376.242 427.811 375.402 426.856 374.795C425.902 374.174 424.728 373.864 423.334 373.864C421.909 373.864 420.576 374.212 419.334 374.909C418.091 375.606 417.046 376.523 416.197 377.659C415.364 378.78 414.826 380 414.584 381.318L413.515 387.273C413.212 389.106 413.273 390.629 413.697 391.841C414.137 393.053 414.894 393.962 415.97 394.568C417.046 395.159 418.409 395.455 420.061 395.455C421.137 395.455 422.144 395.303 423.084 395C424.038 394.697 424.887 394.25 425.629 393.659C426.372 393.053 426.978 392.303 427.447 391.409L436.288 392C435.47 394.152 434.228 396.03 432.561 397.636C430.894 399.227 428.887 400.47 426.538 401.364C424.205 402.242 421.591 402.682 418.697 402.682ZM454.283 381.818L450.919 402H441.26L447.078 367.091H456.283L455.283 373.25H455.669C456.775 371.205 458.336 369.591 460.351 368.409C462.381 367.227 464.692 366.636 467.283 366.636C469.707 366.636 471.729 367.167 473.351 368.227C474.987 369.288 476.139 370.795 476.805 372.75C477.487 374.705 477.601 377.045 477.146 379.773L473.419 402H463.737L467.169 381.5C467.517 379.364 467.245 377.697 466.351 376.5C465.472 375.288 464.055 374.682 462.101 374.682C460.798 374.682 459.601 374.962 458.51 375.523C457.419 376.083 456.502 376.902 455.76 377.977C455.033 379.038 454.54 380.318 454.283 381.818ZM496.686 402.682C493.095 402.682 490.14 401.924 487.822 400.409C485.519 398.879 483.906 396.758 482.981 394.045C482.072 391.333 481.913 388.212 482.504 384.682C483.08 381.106 484.284 377.97 486.118 375.273C487.951 372.561 490.277 370.447 493.095 368.932C495.928 367.402 499.11 366.636 502.64 366.636C505.686 366.636 508.262 367.189 510.368 368.295C512.474 369.402 514.019 370.955 515.004 372.955C515.989 374.955 516.322 377.303 516.004 380H506.89C506.906 378.273 506.459 376.871 505.55 375.795C504.64 374.72 503.307 374.182 501.55 374.182C500.034 374.182 498.64 374.591 497.368 375.409C496.11 376.212 495.042 377.386 494.163 378.932C493.3 380.477 492.694 382.348 492.345 384.545C491.981 386.773 491.974 388.667 492.322 390.227C492.671 391.788 493.337 392.977 494.322 393.795C495.307 394.614 496.55 395.023 498.05 395.023C499.171 395.023 500.209 394.795 501.163 394.341C502.133 393.886 502.981 393.227 503.709 392.364C504.436 391.485 504.997 390.432 505.39 389.205H514.527C513.906 391.886 512.777 394.235 511.14 396.25C509.519 398.265 507.481 399.841 505.027 400.977C502.572 402.114 499.792 402.682 496.686 402.682ZM522.408 415.091C521.165 415.091 520.029 414.992 518.998 414.795C517.968 414.614 517.12 414.379 516.453 414.091L519.862 406.864C520.938 407.212 521.915 407.394 522.794 407.409C523.688 407.424 524.506 407.197 525.248 406.727C525.991 406.258 526.673 405.485 527.294 404.409L528.158 402.932L521.612 367.091H531.43L534.385 392.773H534.748L546.317 367.091H556.93L536.953 405.773C535.968 407.667 534.801 409.311 533.453 410.705C532.12 412.098 530.536 413.174 528.703 413.932C526.885 414.705 524.786 415.091 522.408 415.091Z" fill="black"/>
<path d="M390.317 248.273L378.243 321H361.765L341.879 282.79H341.453L335.061 321H315.317L327.39 248.273H344.152L363.754 286.341H364.322L370.572 248.273H390.317ZM413.861 321.994C408.037 321.994 403.207 320.882 399.372 318.656C395.537 316.407 392.838 313.187 391.275 308.997C389.713 304.783 389.429 299.741 390.423 293.869C391.37 288.235 393.323 283.311 396.283 279.097C399.265 274.883 403.018 271.604 407.54 269.26C412.085 266.916 417.175 265.744 422.81 265.744C426.929 265.744 430.539 266.384 433.64 267.662C436.765 268.94 439.31 270.799 441.275 273.237C443.24 275.676 444.566 278.623 445.253 282.08C445.963 285.512 445.963 289.395 445.253 293.727L444.542 298.273H395.821L397.525 287.477H428.207C428.444 285.915 428.29 284.542 427.746 283.358C427.225 282.151 426.384 281.215 425.224 280.553C424.088 279.866 422.715 279.523 421.105 279.523C419.495 279.523 417.98 279.866 416.56 280.553C415.163 281.239 413.967 282.198 412.973 283.429C412.002 284.66 411.351 286.104 411.02 287.761L408.889 299.125C408.605 300.877 408.711 302.439 409.209 303.812C409.706 305.186 410.57 306.263 411.801 307.044C413.032 307.825 414.618 308.216 416.56 308.216C417.885 308.216 419.14 308.038 420.324 307.683C421.531 307.304 422.596 306.76 423.52 306.05C424.467 305.316 425.224 304.428 425.792 303.386H443.69C442.412 307.174 440.388 310.465 437.618 313.259C434.872 316.028 431.486 318.183 427.461 319.722C423.461 321.237 418.927 321.994 413.861 321.994ZM474.843 321.994C468.924 321.994 464.047 320.822 460.212 318.479C456.4 316.111 453.725 312.821 452.186 308.607C450.647 304.369 450.34 299.456 451.263 293.869C452.186 288.282 454.116 283.382 457.051 279.168C459.987 274.93 463.763 271.639 468.379 269.295C472.996 266.928 478.275 265.744 484.218 265.744C490.112 265.744 494.966 266.928 498.777 269.295C502.612 271.639 505.299 274.93 506.838 279.168C508.401 283.382 508.72 288.282 507.797 293.869C506.874 299.456 504.932 304.369 501.973 308.607C499.014 312.821 495.226 316.111 490.61 318.479C486.017 320.822 480.761 321.994 474.843 321.994ZM477.257 307.506C478.962 307.506 480.513 306.949 481.909 305.837C483.33 304.724 484.537 303.138 485.531 301.078C486.549 299.018 487.295 296.568 487.769 293.727C488.242 290.863 488.313 288.412 487.982 286.376C487.65 284.317 486.964 282.731 485.922 281.618C484.88 280.505 483.507 279.949 481.803 279.949C480.098 279.949 478.536 280.505 477.115 281.618C475.695 282.731 474.487 284.317 473.493 286.376C472.499 288.412 471.765 290.863 471.291 293.727C470.818 296.568 470.735 299.018 471.043 301.078C471.374 303.138 472.061 304.724 473.102 305.837C474.168 306.949 475.553 307.506 477.257 307.506ZM510.922 321L522.996 248.273H574.132L571.433 264.182H540.041L538.053 276.682H566.32L563.621 292.591H535.354L530.666 321H510.922ZM601.281 248.273L589.207 321H569.605L581.678 248.273H601.281ZM625.331 321.994C619.412 321.994 614.535 320.822 610.7 318.479C606.889 316.111 604.213 312.821 602.675 308.607C601.136 304.369 600.828 299.456 601.751 293.869C602.675 288.282 604.604 283.382 607.54 279.168C610.475 274.93 614.251 271.639 618.868 269.295C623.484 266.928 628.764 265.744 634.706 265.744C640.601 265.744 645.454 266.928 649.265 269.295C653.101 271.639 655.788 274.93 657.327 279.168C658.889 283.382 659.209 288.282 658.285 293.869C657.362 299.456 655.421 304.369 652.461 308.607C649.502 312.821 645.714 316.111 641.098 318.479C636.505 320.822 631.249 321.994 625.331 321.994ZM627.746 307.506C629.45 307.506 631.001 306.949 632.398 305.837C633.818 304.724 635.025 303.138 636.02 301.078C637.038 299.018 637.783 296.568 638.257 293.727C638.73 290.863 638.801 288.412 638.47 286.376C638.139 284.317 637.452 282.731 636.41 281.618C635.369 280.505 633.996 279.949 632.291 279.949C630.586 279.949 629.024 280.505 627.604 281.618C626.183 282.731 624.976 284.317 623.981 286.376C622.987 288.412 622.253 290.863 621.78 293.727C621.306 296.568 621.223 299.018 621.531 301.078C621.863 303.138 622.549 304.724 623.591 305.837C624.656 306.949 626.041 307.506 627.746 307.506ZM670.377 321L665.832 266.455H685.434L686.144 299.693H686.57L699.07 266.455H718.104L719.809 299.409H720.235L731.741 266.455H751.343L728.616 321H707.451L704.61 291.739H704.042L691.542 321H670.377Z" fill="black"/>
</svg>
